<svg xmlns="http://www.w3.org/2000/svg" viewBox="0 0 64 64" fill="none">
  <rect width="64" height="64" rx="14" fill="url(#bg)"/>
  <path d="M13 39c6-3.2 12.3-4.8 19-4.8V52c-6.7 0-13 1.6-19 4.7V39Z" fill="#E0F2FE"/>
  <path d="M51 39c-6-3.2-12.3-4.8-19-4.8V52c6.7 0 13 1.6 19 4.7V39Z" fill="#BAE6FD"/>
  <path d="M21.7 28.8v-2.7a10.3 10.3 0 0 1 20.6 0v2.7" stroke="#fff" stroke-width="3.2" stroke-linecap="round"/>
  <rect x="20.4" y="28.3" width="23.2" height="16.6" rx="4.1" fill="#2563EB"/>
  <path d="M32 33.1v6.3" stroke="#fff" stroke-width="2.8" stroke-linecap="round"/>
  <path d="M11.5 33.5C18 30 24.9 28.2 32 28.2c7.1 0 14 1.8 20.5 5.3" stroke="#38BDF8" stroke-width="2.2" stroke-linecap="round" opacity=".9"/>
  <circle cx="47.8" cy="16.5" r="3.8" fill="#F59E0B"/>
  <defs>
    <linearGradient id="bg" x1="5" y1="4" x2="60" y2="60" gradientUnits="userSpaceOnUse">
      <stop stop-color="#0B1227"/>
      <stop offset="0.52" stop-color="#0F4B9C"/>
      <stop offset="1" stop-color="#0B9F8A"/>
    </linearGradient>
  </defs>
</svg>
